HIERARCHY
ROOT joint_Root
{
	OFFSET 0.0 0.0 0.0
	CHANNELS 6 Xposition Yposition Zposition Zrotation Xrotation Yrotation 
	JOINT Hips
	{
		OFFSET -17.1583 93.1646 452.98
		CHANNELS 6 Xposition Yposition Zposition Zrotation Xrotation Yrotation 
		JOINT Spine
		{
			OFFSET 15.7357 0.0 0.0
			CHANNELS 6 Xposition Yposition Zposition Zrotation Xrotation Yrotation 
			JOINT Chest
			{
				OFFSET 8.98455 -0.406207 0.0
				CHANNELS 6 Xposition Yposition Zposition Zrotation Xrotation Yrotation 
				JOINT Neck
				{
					OFFSET 16.3773 0.0 0.0
					CHANNELS 6 Xposition Yposition Zposition Zrotation Xrotation Yrotation 
					JOINT Head
					{
						OFFSET 6.45672 0.0 0.0
						CHANNELS 6 Xposition Yposition Zposition Zrotation Xrotation Yrotation 
						End Site
						{
							OFFSET 0.0 0.0 0.0
						}
					}
				}
				JOINT Shoulder_L
				{
					OFFSET 12.9942 -0.242716 4.98039
					CHANNELS 6 Xposition Yposition Zposition Zrotation Xrotation Yrotation 
					JOINT UpperArm_L
					{
						OFFSET 5.34809 0.0 0.0
						CHANNELS 6 Xposition Yposition Zposition Zrotation Xrotation Yrotation 
						JOINT LowerArm_L
						{
							OFFSET 24.3286 1.87007e-05 0.0
							CHANNELS 6 Xposition Yposition Zposition Zrotation Xrotation Yrotation 
							JOINT Hand_L
							{
								OFFSET 22.2916 0.0 0.0
								CHANNELS 6 Xposition Yposition Zposition Zrotation Xrotation Yrotation 
								End Site
								{
									OFFSET 0.0 0.0 0.0
								}
							}
						}
					}
				}
				JOINT Shoulder_R
				{
					OFFSET 12.9945 -0.242716 -4.98039
					CHANNELS 6 Xposition Yposition Zposition Zrotation Xrotation Yrotation 
					JOINT UpperArm_R
					{
						OFFSET -5.34813 0.0 0.0
						CHANNELS 6 Xposition Yposition Zposition Zrotation Xrotation Yrotation 
						JOINT LowerArm_R
						{
							OFFSET -24.3289 0.000322201 0.0
							CHANNELS 6 Xposition Yposition Zposition Zrotation Xrotation Yrotation 
							JOINT Hand_R
							{
								OFFSET -22.2915 -0.000108084 0.0
								CHANNELS 6 Xposition Yposition Zposition Zrotation Xrotation Yrotation 
								End Site
								{
									OFFSET 0.0 0.0 0.0
								}
							}
						}
					}
				}
			}
		}
		JOINT UpperLeg_L
		{
			OFFSET -2.19248 -6.46944 0.0
			CHANNELS 6 Xposition Yposition Zposition Zrotation Xrotation Yrotation 
			JOINT LowerLeg_L
			{
				OFFSET 39.0811 0.0 -1.23785e-05
				CHANNELS 6 Xposition Yposition Zposition Zrotation Xrotation Yrotation 
				JOINT Foot_L
				{
					OFFSET 40.9854 0.0 -1.26872e-05
					CHANNELS 6 Xposition Yposition Zposition Zrotation Xrotation Yrotation 
					JOINT Toes_L
					{
						OFFSET 11.7543 0.0 0.0
						CHANNELS 6 Xposition Yposition Zposition Zrotation Xrotation Yrotation 
						End Site
						{
							OFFSET 0.0 0.0 0.0
						}
					}
				}
			}
		}
		JOINT UpperLeg_R
		{
			OFFSET -2.19251 6.46944 0.0
			CHANNELS 6 Xposition Yposition Zposition Zrotation Xrotation Yrotation 
			JOINT LowerLeg_R
			{
				OFFSET -39.0811 -0.00228153 -0.0401928
				CHANNELS 6 Xposition Yposition Zposition Zrotation Xrotation Yrotation 
				JOINT Foot_R
				{
					OFFSET -40.9854 0.0 0.0
					CHANNELS 6 Xposition Yposition Zposition Zrotation Xrotation Yrotation 
					JOINT Toes_R
					{
						OFFSET -11.7543 0.0 0.0
						CHANNELS 6 Xposition Yposition Zposition Zrotation Xrotation Yrotation 
						End Site
						{
							OFFSET 0.0 0.0 0.0
						}
					}
				}
			}
		}
	}
}
MOTION
Frames:	4
Frame Time:	0.0333333
0.000000 0.000000 0.000000 0.000000 0.000000 -0.000000 -3.782240 93.081100 -1.166830 86.818400 1.491980 3.633090 15.735700 0.000005 -0.000001 79.027700 85.355100 -76.540200 8.984550 -0.406207 -0.000000 1.401090 -1.905380 4.994500 16.377300 -0.000001 -0.000001 4.708410 0.961766 -0.110764 6.456720 -0.000001 -0.000000 -11.251600 1.204150 -0.308567 12.994200 -0.242716 4.980390 -93.286000 9.818230 -71.392000 5.348090 -0.000007 -0.000001 -71.934500 30.017700 -2.112660 24.328600 0.000019 0.000005 12.540300 26.986400 -26.113000 22.291600 -0.000001 0.000005 -2.874870 5.094440 5.240270 12.994500 -0.242716 -4.980390 87.966000 5.795010 -70.621100 -5.348130 -0.000001 -0.000004 -66.266200 33.320300 -7.761580 -24.328900 0.000322 -0.000009 1.020470 2.481560 -22.390900 -22.291500 -0.000108 -0.000004 -8.999200 5.226960 2.050830 -2.192480 -6.469440 -0.000000 -169.203000 -8.195250 0.708836 39.081100 -0.000007 -0.000012 -0.003277 0.011716 15.623300 40.985400 -0.000006 -0.000013 -2.458220 18.563500 -67.923200 11.754300 -0.000000 0.000003 -0.001514 0.190085 -8.865420 -2.192510 6.469440 -0.000001 179.936000 4.734250 -177.769000 -39.081100 -0.002282 -0.040193 0.020167 -0.071829 13.189300 -40.985400 0.000008 0.000006 -3.705920 8.404360 -67.385300 -11.754300 -0.000006 -0.000006 -0.008637 0.260822 -5.979550
0.000000 0.000000 0.000000 0.000000 0.000000 -0.000000 -3.666860 93.102300 -1.142790 86.838100 1.696160 3.515630 15.735700 0.000005 -0.000001 77.877200 85.310000 -75.308600 8.984550 -0.406207 -0.000000 1.458350 -2.110160 5.160060 16.377300 -0.000001 -0.000001 4.319950 1.120190 -0.202128 6.456720 -0.000001 -0.000000 -11.215700 1.606520 -0.941454 12.994200 -0.242716 4.980390 -93.293400 9.823420 -71.361800 5.348090 -0.000007 -0.000001 -72.028600 28.859900 -1.694520 24.328600 0.000019 0.000005 12.902300 26.841000 -26.900500 22.291600 -0.000001 0.000005 -3.078510 5.104360 5.013640 12.994500 -0.242716 -4.980390 87.954700 5.734700 -70.333000 -5.348130 -0.000001 -0.000004 -64.916100 31.373900 -6.954380 -24.328900 0.000322 -0.000009 1.005700 1.850720 -28.598100 -22.291500 -0.000108 -0.000004 -13.080500 5.163710 3.649190 -2.192480 -6.469440 -0.000000 -169.314000 -8.239330 0.605360 39.081100 -0.000007 -0.000012 -0.001674 0.006017 15.540400 40.985400 -0.000006 -0.000013 -2.364710 18.723900 -67.929400 11.754300 -0.000000 0.000003 -0.001549 0.190552 -8.846440 -2.192510 6.469440 -0.000001 179.765000 5.182490 -177.691000 -39.081100 -0.002282 -0.040193 0.016564 -0.057965 12.857200 -40.985400 0.000008 0.000006 -3.922130 8.693540 -67.142200 -11.754300 -0.000006 -0.000006 -0.008713 0.261425 -5.954900
0.000000 0.000000 0.000000 0.000000 0.000000 -0.000000 -3.548250 93.141600 -1.121650 86.890300 2.042070 3.286790 15.735700 0.000005 -0.000001 75.860600 85.321400 -73.245000 8.984550 -0.406207 -0.000000 1.369870 -2.430560 5.256550 16.377300 -0.000001 -0.000001 3.831170 1.217070 -0.461088 6.456720 -0.000001 -0.000000 -11.149500 2.035010 -1.703230 12.994200 -0.242716 4.980390 -93.306100 9.794300 -71.243600 5.348090 -0.000007 -0.000001 -72.026000 27.423500 -1.022660 24.328600 0.000019 0.000005 13.027300 26.034600 -27.795900 22.291600 -0.000001 0.000005 -3.149710 5.111910 4.839950 12.994500 -0.242716 -4.980390 87.892400 5.696090 -69.656400 -5.348130 -0.000001 -0.000004 -62.755100 28.765300 -5.072470 -24.328900 0.000322 -0.000009 0.319859 0.386142 -40.241300 -22.291500 -0.000108 -0.000004 -17.436800 5.055240 6.143270 -2.192480 -6.469440 -0.000000 -169.480000 -8.327280 0.467888 39.081100 -0.000007 -0.000012 -0.000093 0.000338 15.264300 40.985400 -0.000006 -0.000013 -2.260180 19.063900 -67.858200 11.754300 -0.000000 0.000003 -0.001461 0.189378 -8.894200 -2.192510 6.469440 -0.000001 179.542000 5.875430 -177.613000 -39.081100 -0.002282 -0.040193 0.011796 -0.038711 12.329900 -40.985400 0.000008 0.000006 -4.226130 9.073910 -66.777800 -11.754300 -0.000006 -0.000006 -0.008592 0.260468 -5.994000
0.000000 0.000000 0.000000 0.000000 0.000000 -0.000000 -3.431800 93.205400 -1.114460 86.933100 2.617750 2.688040 15.735700 0.000005 -0.000001 71.948100 85.511600 -69.351700 8.984550 -0.406207 -0.000000 0.842253 -2.937440 5.211270 16.377300 -0.000001 -0.000001 3.467350 1.171400 -0.878873 6.456720 -0.000001 -0.000000 -11.051500 2.460770 -2.596010 12.994200 -0.242716 4.980390 -93.357000 9.910270 -71.179900 5.348090 -0.000007 -0.000001 -71.602100 25.339400 0.316581 24.328600 0.000019 0.000005 13.616800 25.357200 -29.493800 22.291600 -0.000001 0.000005 -3.587720 5.129760 4.423010 12.994500 -0.242716 -4.980390 87.796200 5.668920 -68.714900 -5.348130 -0.000001 -0.000004 -59.225300 25.821200 -2.952950 -24.328900 0.000322 -0.000009 -0.641582 -0.426782 -56.254700 -22.291500 -0.000108 -0.000004 -21.556100 4.988050 7.577870 -2.192480 -6.469440 -0.000000 -169.579000 -9.064110 0.001277 39.081100 -0.000007 -0.000012 -0.002502 0.009483 14.779600 40.985400 -0.000006 -0.000013 -2.150700 20.155500 -67.682000 11.754300 -0.000000 0.000003 -0.001513 0.190071 -8.866010 -2.192510 6.469440 -0.000001 179.357000 6.710280 -177.763000 -39.081100 -0.002282 -0.040193 0.005614 -0.011208 11.490000 -40.985400 0.000008 0.000006 -4.839100 9.373840 -66.113800 -11.754300 -0.000006 -0.000006 -0.008308 0.258192 -6.086980
